<?xml version="1.0" standalone="no"?>
<!DOCTYPE svg PUBLIC "-//W3C//DTD SVG 20010904//EN"
 "http://www.w3.org/TR/2001/REC-SVG-20010904/DTD/svg10.dtd">
<svg version="1.0" xmlns="http://www.w3.org/2000/svg"
 width="260.000000pt" height="260.000000pt" viewBox="0 0 260.000000 260.000000"
 preserveAspectRatio="xMidYMid meet">
<metadata>
Created by potrace 1.14, written by Peter Selinger 2001-2017
</metadata>
<g transform="translate(0.000000,260.000000) scale(0.100000,-0.100000)"
fill="#000000" stroke="none">
<path d="M390 1660 l0 -270 55 0 55 0 0 78 c1 70 3 80 29 110 l28 33 73 -111
73 -110 69 0 69 0 -102 149 -102 149 102 121 102 121 -69 0 -70 0 -98 -122
-99 -121 -3 121 -3 122 -54 0 -55 0 0 -270z"/>
<path d="M870 1925 c0 -3 43 -81 95 -173 l95 -168 0 -97 0 -97 55 0 55 0 0 91
0 92 96 171 c53 94 99 174 101 179 2 4 -24 7 -60 7 l-63 0 -60 -115 c-32 -63
-61 -115 -64 -115 -3 0 -33 51 -66 113 l-60 112 -62 3 c-34 2 -62 0 -62 -3z"/>
<path d="M1440 1660 l0 -270 170 0 170 0 0 45 0 45 -115 0 -115 0 0 225 0 225
-55 0 -55 0 0 -270z"/>
<path d="M1860 1660 l0 -270 180 0 180 0 0 45 0 45 -125 0 -125 0 0 65 0 65
115 0 115 0 0 50 0 50 -115 0 -115 0 0 60 0 60 125 0 125 0 0 50 0 50 -180 0
-180 0 0 -270z"/>
<path d="M1510 1221 c-58 -12 -119 -49 -149 -91 -40 -56 -54 -116 -49 -209 7
-126 65 -205 175 -237 65 -19 136 -13 192 16 76 39 111 103 111 205 l0 65
-110 0 -110 0 0 -45 0 -45 55 0 c47 0 55 -3 55 -19 0 -52 -78 -98 -145 -85
-116 21 -156 229 -59 313 47 42 117 44 163 5 17 -14 31 -32 31 -40 0 -10 15
-14 61 -14 l61 0 -7 28 c-25 102 -159 177 -275 153z"/>
<path d="M120 950 l0 -270 55 0 55 0 2 172 3 172 68 -172 69 -172 37 0 37 0
72 178 71 177 0 -177 1 -178 55 0 55 0 0 270 0 271 -71 -3 -71 -3 -71 -177
c-40 -98 -75 -178 -78 -178 -3 0 -39 81 -79 180 l-73 180 -69 0 -68 0 0 -270z"/>
<path d="M865 963 c-48 -142 -90 -264 -93 -270 -3 -10 12 -13 56 -13 l60 0 19
58 20 57 100 3 100 3 18 -61 18 -60 62 0 62 0 -69 198 c-37 108 -80 230 -94
270 l-26 72 -72 0 -72 0 -89 -257z m194 38 c17 -55 31 -102 31 -105 0 -3 -30
-6 -66 -6 -59 0 -65 2 -59 18 3 9 18 56 33 105 15 48 27 87 29 87 1 0 15 -45
32 -99z"/>
<path d="M1890 951 l0 -271 55 0 55 0 0 95 0 95 43 0 42 0 50 -95 50 -95 63 0
63 0 -47 88 c-26 48 -52 93 -57 100 -8 10 -2 20 22 39 92 72 78 234 -24 287
-34 18 -62 22 -177 24 l-138 4 0 -271z m255 155 c20 -13 25 -25 25 -60 0 -60
-23 -79 -106 -84 l-64 -4 0 87 0 88 60 -6 c34 -3 72 -12 85 -21z"/>
<path d="M2370 950 l0 -270 55 0 55 0 0 270 0 270 -55 0 -55 0 0 -270z"/>
</g>
</svg>
